<svg width="1280" height="640" viewBox="0 0 1280 640" fill="none" xmlns="http://www.w3.org/2000/svg">
  <defs>
    <linearGradient id="bg" x1="0" y1="0" x2="1280" y2="640" gradientUnits="userSpaceOnUse">
      <stop stop-color="#06131F"/>
      <stop offset="1" stop-color="#132A3F"/>
    </linearGradient>
    <linearGradient id="accent" x1="119" y1="140" x2="1191" y2="518" gradientUnits="userSpaceOnUse">
      <stop stop-color="#2DD4BF"/>
      <stop offset="0.5" stop-color="#38BDF8"/>
      <stop offset="1" stop-color="#F59E0B"/>
    </linearGradient>
    <filter id="shadow" x="70" y="87" width="852" height="438" filterUnits="userSpaceOnUse" color-interpolation-filters="sRGB">
      <feDropShadow dx="0" dy="20" stdDeviation="20" flood-color="#020617" flood-opacity="0.35"/>
    </filter>
    <pattern id="grid" width="40" height="40" patternUnits="userSpaceOnUse">
      <path d="M 40 0 L 0 0 0 40" stroke="#1E3A56" stroke-width="1"/>
    </pattern>
  </defs>

  <rect width="1280" height="640" rx="32" fill="url(#bg)"/>
  <rect width="1280" height="640" rx="32" fill="url(#grid)" opacity="0.35"/>
  <circle cx="1105" cy="118" r="145" fill="#0F766E" opacity="0.18"/>
  <circle cx="1038" cy="472" r="188" fill="#0EA5E9" opacity="0.12"/>
  <circle cx="334" cy="110" r="124" fill="#F59E0B" opacity="0.08"/>

  <g filter="url(#shadow)">
    <rect x="110" y="127" width="772" height="358" rx="26" fill="#071826" stroke="#1F3A56" stroke-width="2"/>
    <rect x="110" y="127" width="772" height="54" rx="26" fill="#0D2234"/>
    <circle cx="150" cy="154" r="8" fill="#F87171"/>
    <circle cx="176" cy="154" r="8" fill="#FBBF24"/>
    <circle cx="202" cy="154" r="8" fill="#34D399"/>

    <text x="144" y="224" fill="#E2E8F0" font-family="'Cascadia Code', Consolas, monospace" font-size="28">student@devops-labs:~$ git status</text>
    <text x="144" y="270" fill="#38BDF8" font-family="'Cascadia Code', Consolas, monospace" font-size="24">On branch main</text>
    <text x="144" y="314" fill="#CBD5E1" font-family="'Cascadia Code', Consolas, monospace" font-size="24">Changes ready for commit:</text>
    <text x="144" y="358" fill="#34D399" font-family="'Cascadia Code', Consolas, monospace" font-size="24">new file:   README.md</text>
    <text x="144" y="396" fill="#34D399" font-family="'Cascadia Code', Consolas, monospace" font-size="24">new file:   labs/lab-03-bash-stepik/scripts/calculator.sh</text>
    <text x="144" y="434" fill="#34D399" font-family="'Cascadia Code', Consolas, monospace" font-size="24">new file:   labs/lab-04-linux-server-admin/examples/monitoring.service</text>
  </g>

  <rect x="932" y="146" width="244" height="48" rx="24" fill="#0B2132" stroke="#274866"/>
  <text x="972" y="178" fill="#7DD3FC" font-family="'Segoe UI', Arial, sans-serif" font-size="20" font-weight="700">MARKDOWN PORTFOLIO</text>

  <text x="932" y="266" fill="url(#accent)" font-family="'Segoe UI', Arial, sans-serif" font-size="74" font-weight="800">DEVOPS</text>
  <text x="932" y="338" fill="#F8FAFC" font-family="'Segoe UI', Arial, sans-serif" font-size="74" font-weight="800">LINUX LABS</text>
  <text x="932" y="390" fill="#BFDBFE" font-family="'Segoe UI', Arial, sans-serif" font-size="24">Ubuntu, Bash, Git, screen, systemd</text>

  <rect x="932" y="448" width="102" height="38" rx="19" fill="#10263A" stroke="#25506F"/>
  <text x="965" y="473" fill="#E2E8F0" font-family="'Segoe UI', Arial, sans-serif" font-size="18" font-weight="700">Ubuntu</text>

  <rect x="1048" y="448" width="82" height="38" rx="19" fill="#10263A" stroke="#25506F"/>
  <text x="1071" y="473" fill="#E2E8F0" font-family="'Segoe UI', Arial, sans-serif" font-size="18" font-weight="700">Bash</text>

  <rect x="932" y="500" width="64" height="38" rx="19" fill="#10263A" stroke="#25506F"/>
  <text x="952" y="525" fill="#E2E8F0" font-family="'Segoe UI', Arial, sans-serif" font-size="18" font-weight="700">Git</text>

  <rect x="1008" y="500" width="84" height="38" rx="19" fill="#10263A" stroke="#25506F"/>
  <text x="1030" y="525" fill="#E2E8F0" font-family="'Segoe UI', Arial, sans-serif" font-size="18" font-weight="700">screen</text>

  <rect x="1106" y="500" width="110" height="38" rx="19" fill="#10263A" stroke="#25506F"/>
  <text x="1132" y="525" fill="#E2E8F0" font-family="'Segoe UI', Arial, sans-serif" font-size="18" font-weight="700">systemd</text>
</svg>
